HIERARCHY
ROOT Hips
{
    OFFSET   0.000000   0.000000   0.000000
    CHANNELS 6 Xposition Yposition Zposition Zrotation Xrotation Yrotation
    JOINT Chest
    {
        OFFSET   0.000000   8.007240   0.000000
        CHANNELS 3 Zrotation Xrotation Yrotation
        JOINT Chest2
        {
            OFFSET   0.000000  22.077100   0.000000
            CHANNELS 3 Zrotation Xrotation Yrotation
            JOINT Neck
            {
                OFFSET   0.000000  23.254800   0.000000
                CHANNELS 3 Zrotation Xrotation Yrotation
                JOINT Head
                {
                    OFFSET   0.000000  14.370000   1.956600
                    CHANNELS 3 Zrotation Xrotation Yrotation
                    End Site
                    {
                        OFFSET   0.000000  19.566000   0.000000
                    }
                }
            }
            JOINT LeftCollar
            {
                OFFSET   3.911900  19.017000  -0.467064
                CHANNELS 3 Zrotation Xrotation Yrotation
                JOINT LeftShoulder
                {
                    OFFSET  10.383700   0.000000   0.000000
                    CHANNELS 3 Zrotation Xrotation Yrotation
                    JOINT LeftElbow
                    {
                        OFFSET  26.662100   0.001476   0.000517
                        CHANNELS 3 Zrotation Xrotation Yrotation
                        JOINT LeftWrist
                        {
                            OFFSET  28.869000  -0.000025  -0.000106
                            CHANNELS 3 Zrotation Xrotation Yrotation
                            JOINT LeftFinger0
                            {
                                OFFSET   2.044660  -2.323460   3.252850
                                CHANNELS 3 Zrotation Xrotation Yrotation
                                JOINT LeftFinger01
                                {
                                    OFFSET   3.088130   0.000000   0.000000
                                    CHANNELS 3 Zrotation Xrotation Yrotation
                                    JOINT LeftFinger02
                                    {
                                        OFFSET   2.639460   0.000000   0.000000
                                        CHANNELS 3 Zrotation Xrotation Yrotation
                                        End Site
                                        {
                                            OFFSET   2.582190   0.000000   0.000000
                                        }
                                    }
                                }
                            }
                            JOINT LeftFinger1
                            {
                                OFFSET   8.364480   0.000000   3.252850
                                CHANNELS 3 Zrotation Xrotation Yrotation
                                JOINT LeftFinger11
                                {
                                    OFFSET   4.646930   0.000000   0.000000
                                    CHANNELS 3 Zrotation Xrotation Yrotation
                                    JOINT LeftFinger12
                                    {
                                        OFFSET   2.323460   0.000000   0.000000
                                        CHANNELS 3 Zrotation Xrotation Yrotation
                                        End Site
                                        {
                                            OFFSET   2.273050   0.000000   0.000000
                                        }
                                    }
                                }
                            }
                            JOINT LeftFinger2
                            {
                                OFFSET   8.364490   0.000015   1.078090
                                CHANNELS 3 Zrotation Xrotation Yrotation
                                JOINT LeftFinger21
                                {
                                    OFFSET   5.111620   0.000000   0.000000
                                    CHANNELS 3 Zrotation Xrotation Yrotation
                                    JOINT LeftFinger22
                                    {
                                        OFFSET   2.788160   0.000016   0.000000
                                        CHANNELS 3 Zrotation Xrotation Yrotation
                                        End Site
                                        {
                                            OFFSET   2.727660   0.000000   0.000000
                                        }
                                    }
                                }
                            }
                            JOINT LeftFinger3
                            {
                                OFFSET   7.899780   0.000017  -1.078090
                                CHANNELS 3 Zrotation Xrotation Yrotation
                                JOINT LeftFinger31
                                {
                                    OFFSET   4.646930   0.000000   0.000000
                                    CHANNELS 3 Zrotation Xrotation Yrotation
                                    JOINT LeftFinger32
                                    {
                                        OFFSET   2.323470   0.000000   0.000000
                                        CHANNELS 3 Zrotation Xrotation Yrotation
                                        End Site
                                        {
                                            OFFSET   2.273050   0.000000   0.000000
                                        }
                                    }
                                }
                            }
                            JOINT LeftFinger4
                            {
                                OFFSET   7.435090   0.000000  -3.252850
                                CHANNELS 3 Zrotation Xrotation Yrotation
                                JOINT LeftFinger41
                                {
                                    OFFSET   3.717550   0.000000   0.000000
                                    CHANNELS 3 Zrotation Xrotation Yrotation
                                    JOINT LeftFinger42
                                    {
                                        OFFSET   1.858770   0.000000   0.000000
                                        CHANNELS 3 Zrotation Xrotation Yrotation
                                        End Site
                                        {
                                            OFFSET   1.818440   0.000000   0.000000
                                        }
                                    }
                                }
                            }
                        }
                    }
                }
            }
            JOINT RightCollar
            {
                OFFSET  -3.911900  19.017000  -0.467063
                CHANNELS 3 Zrotation Xrotation Yrotation
                JOINT RightShoulder
                {
                    OFFSET -10.383700   0.000019   0.000000
                    CHANNELS 3 Zrotation Xrotation Yrotation
                    JOINT RightElbow
                    {
                        OFFSET -26.662100   0.001175   0.000102
                        CHANNELS 3 Zrotation Xrotation Yrotation
                        JOINT RightWrist
                        {
                            OFFSET -28.869000   0.000016  -0.000079
                            CHANNELS 3 Zrotation Xrotation Yrotation
                            JOINT RightFinger0
                            {
                                OFFSET  -2.044660  -2.323490   3.252850
                                CHANNELS 3 Zrotation Xrotation Yrotation
                                JOINT RightFinger01
                                {
                                    OFFSET  -3.088140   0.000000   0.000000
                                    CHANNELS 3 Zrotation Xrotation Yrotation
                                    JOINT RightFinger02
                                    {
                                        OFFSET  -2.639460   0.000000   0.000000
                                        CHANNELS 3 Zrotation Xrotation Yrotation
                                        End Site
                                        {
                                            OFFSET  -2.582190   0.000000   0.000000
                                        }
                                    }
                                }
                            }
                            JOINT RightFinger1
                            {
                                OFFSET  -8.364480   0.000000   3.252850
                                CHANNELS 3 Zrotation Xrotation Yrotation
                                JOINT RightFinger11
                                {
                                    OFFSET  -4.646930   0.000000   0.000000
                                    CHANNELS 3 Zrotation Xrotation Yrotation
                                    JOINT RightFinger12
                                    {
                                        OFFSET  -2.323470   0.000000   0.000000
                                        CHANNELS 3 Zrotation Xrotation Yrotation
                                        End Site
                                        {
                                            OFFSET  -2.273050   0.000000   0.000000
                                        }
                                    }
                                }
                            }
                            JOINT RightFinger2
                            {
                                OFFSET  -8.364480   0.000000   1.078090
                                CHANNELS 3 Zrotation Xrotation Yrotation
                                JOINT RightFinger21
                                {
                                    OFFSET  -5.111620   0.000000   0.000000
                                    CHANNELS 3 Zrotation Xrotation Yrotation
                                    JOINT RightFinger22
                                    {
                                        OFFSET  -2.788160   0.000000   0.000000
                                        CHANNELS 3 Zrotation Xrotation Yrotation
                                        End Site
                                        {
                                            OFFSET  -2.727660   0.000000   0.000000
                                        }
                                    }
                                }
                            }
                            JOINT RightFinger3
                            {
                                OFFSET  -7.899780   0.000000  -1.078090
                                CHANNELS 3 Zrotation Xrotation Yrotation
                                JOINT RightFinger31
                                {
                                    OFFSET  -4.646930   0.000000   0.000000
                                    CHANNELS 3 Zrotation Xrotation Yrotation
                                    JOINT RightFinger32
                                    {
                                        OFFSET  -2.323470   0.000000   0.000000
                                        CHANNELS 3 Zrotation Xrotation Yrotation
                                        End Site
                                        {
                                            OFFSET  -2.273050   0.000000   0.000000
                                        }
                                    }
                                }
                            }
                            JOINT RightFinger4
                            {
                                OFFSET  -7.435090   0.000000  -3.252850
                                CHANNELS 3 Zrotation Xrotation Yrotation
                                JOINT RightFinger41
                                {
                                    OFFSET  -3.717550   0.000000   0.000000
                                    CHANNELS 3 Zrotation Xrotation Yrotation
                                    JOINT RightFinger42
                                    {
                                        OFFSET  -1.858770   0.000000   0.000000
                                        CHANNELS 3 Zrotation Xrotation Yrotation
                                        End Site
                                        {
                                            OFFSET  -1.818440   0.000000   0.000000
                                        }
                                    }
                                }
                            }
                        }
                    }
                }
            }
        }
    }
    JOINT LeftHip
    {
        OFFSET   9.783040   0.000000   0.000000
        CHANNELS 3 Zrotation Xrotation Yrotation
        JOINT LeftKnee
        {
            OFFSET   0.000032 -41.789100  -0.002222
            CHANNELS 3 Zrotation Xrotation Yrotation
            JOINT LeftAnkle
            {
                OFFSET   0.000087 -41.133200  -0.000135
                CHANNELS 3 Zrotation Xrotation Yrotation
                JOINT LeftToe
                {
                    OFFSET   0.000000  -6.358960  14.674500
                    CHANNELS 3 Zrotation Xrotation Yrotation
                    End Site
                    {
                        OFFSET   0.000000   0.000000   3.913200
                    }
                }
            }
        }
    }
    JOINT RightHip
    {
        OFFSET  -9.783040   0.000000   0.000000
        CHANNELS 3 Zrotation Xrotation Yrotation
        JOINT RightKnee
        {
            OFFSET   0.000047 -41.789100  -0.000896
            CHANNELS 3 Zrotation Xrotation Yrotation
            JOINT RightAnkle
            {
                OFFSET  -0.000117 -41.133300  -0.000248
                CHANNELS 3 Zrotation Xrotation Yrotation
                JOINT RightToe
                {
                    OFFSET   0.000000  -6.358970  14.674500
                    CHANNELS 3 Zrotation Xrotation Yrotation
                    End Site
                    {
                        OFFSET   0.000000   0.000000   3.913200
                    }
                }
            }
        }
    }
}
MOTION
Frames: 5
Frame Time:   0.016667
 -0.477072  89.475000   1.213620  -2.961660  -6.709370  -0.442663   1.099030   2.819750  -0.473775   2.225410   5.629780  -1.003510   1.804590   1.008120  -0.029170   2.963490   2.037800   5.572820  -4.261080   1.864220   1.641640 -75.435500  10.497800  -0.113052  -2.123560  -2.699070 -12.463000  11.896000  -2.329750  -3.472080  41.766100  27.825200 -56.782900 -23.415900   0.023672   0.010203  -6.708500   0.010932   0.003952 -26.906200   2.677360  -5.259290 -22.114800  -0.002830   0.003702 -15.480400  -0.000512   0.000239 -27.629000  -0.361957   0.689442 -29.875600  -0.036813  -0.026707 -19.897100  -0.017089  -0.041110 -26.445300  -0.347235   0.696764 -26.447500  -0.038404  -0.027221 -17.614000  -0.019969  -0.041894 -25.485800  -0.335269   0.702456 -38.231800  -0.031627  -0.081642 -25.462300   0.021903  -0.053294   3.698050  -1.845670   4.564050  22.624100  -9.764790  55.132400 -54.057400 -26.475000  55.842800 -46.393800  27.705600  29.788800 -55.484000  52.641100 103.869000 -10.770600  -0.000292   0.000051 -10.385300  -0.002606  -0.007102   8.662150   1.958380  12.691900   7.267220  -0.001582   0.001355   5.087040  -0.001071  -0.002392   8.231740   0.358417   2.514270   8.240430  -0.003492  -0.003481   5.488130  -0.003323  -0.002081   2.455210  -0.114156  -2.851870   2.460630   0.004766  -0.004046   1.638800  -0.006078  -0.005317   3.788230  -1.182640 -16.814500   5.783930  -0.010876  -0.007653   3.876610  -0.008137  -0.004033   2.827130   9.369960   1.524390   0.375488   0.135679  13.261700  -0.971358  -3.312290   2.051890  -0.000000   0.000000   0.000000   2.631220   9.562460  -4.851400   0.258716   0.592839 -16.855700   0.634827  -3.465280   2.360190   0.000000   0.000000  -0.000000
 -0.483395  89.474600   1.216210  -2.960650  -6.700010  -0.438444   1.095470   2.817010  -0.474066   2.218300   5.624310  -1.003850   1.806500   1.031170  -0.029185   2.971020   2.084350   5.562340  -4.253150   1.870000   1.646230 -75.417900  10.493600  -0.099186  -2.129670  -2.702980 -12.442300  11.905500  -2.328550  -3.480750  41.764200  27.811900 -56.759200 -23.410000   0.006995   0.004923  -6.705460   0.002858   0.004791 -26.896900   2.675780  -5.258250 -22.107100  -0.017537  -0.029593 -15.474900  -0.000356  -0.025784 -27.628200  -0.358850   0.685583 -29.856100   0.006684   0.004116 -19.884100   0.001326  -0.007750 -26.436600  -0.344532   0.692889 -26.438700   0.007894   0.004008 -17.608100   0.001115  -0.008256 -25.475000  -0.332854   0.698576 -38.215500  -0.006477  -0.026460 -25.451500   0.013297  -0.013498   3.701770  -1.826950   4.556800  22.621400  -9.782560  55.135800 -54.068800 -26.462800  55.935400 -45.958100  27.439200  29.397000 -56.001000  52.909600 104.517000 -11.436800  -0.000522  -0.000000 -10.718400  -0.002674  -0.007182   7.796990   1.655860  12.000900   6.525050  -0.001435   0.001095   4.567520  -0.000861  -0.002422   8.144830   0.326549   2.292340   8.152330  -0.003285  -0.003226   5.429440  -0.003120  -0.001887   3.071090  -0.163045  -3.242920   3.078570   0.009873  -0.009190   2.050330  -0.006234  -0.006584   6.650420  -2.002890 -16.870100  10.430300  -0.041774  -0.002958   6.946550  -0.027541   0.003301   2.827980   9.379340   1.524100   0.381086   0.100555  13.260200  -0.972223  -3.293140   2.051280  -0.000000   0.000000  -0.000000   2.635790   9.566690  -4.856520   0.264296   0.568770 -16.854900   0.624502  -3.453870   2.357770   0.000000   0.000000   0.000000
 -0.489700  89.474200   1.219220  -2.959500  -6.690930  -0.433001   1.092410   2.813680  -0.474261   2.212140   5.617670  -1.004030   1.806770   1.056160  -0.029191   2.972380   2.135250   5.545430  -4.245430   1.876450   1.651200 -75.406200  10.487600  -0.087552  -2.130890  -2.704400 -12.418800  11.925200  -2.338970  -3.489810  41.748600  27.798000 -56.756000 -23.409300   0.000000   0.005661  -6.704840   0.000654   0.005665 -26.904700   2.679410  -5.263560 -22.113700  -0.010220  -0.013950 -15.479600  -0.000218  -0.012119 -27.630200  -0.354308   0.677052 -29.867500   0.006348   0.003272 -19.891700   0.002579  -0.001139 -26.441200  -0.340231   0.684254 -26.443300   0.007419   0.002223 -17.611200   0.004241  -0.003650 -25.476000  -0.328673   0.689896 -38.216900  -0.003101  -0.005009 -25.452500   0.004717  -0.001853   3.704850  -1.809690   4.553500  22.593300  -9.773760  55.118900 -54.110500 -26.484600  56.015300 -45.371000  27.181600  28.892600 -56.624700  53.223800 105.298000 -12.032600  -0.000803  -0.000120 -11.016300  -0.002735  -0.007267   7.279650   1.476200  11.488100   6.081180  -0.001477   0.000818   4.256820  -0.000672  -0.002457   8.349720   0.324614   2.198650   8.357060  -0.003074  -0.002984   5.565800  -0.002929  -0.001712   4.363590  -0.264315  -3.617040   4.374910   0.012099  -0.012835   2.913690  -0.006369  -0.009057   9.632050  -2.776830 -16.030800  15.056400  -0.065951   0.011721  10.027500  -0.039358   0.018392   2.828810   9.383980   1.523730   0.387043   0.074348  13.258500  -0.973121  -3.279110   2.050630  -0.000000   0.000000  -0.000000   2.640080   9.558130  -4.865420   0.268463   0.576622 -16.849500   0.619240  -3.458740   2.355630   0.000000   0.000000   0.000000
 -0.495807  89.473700   1.222710  -2.958430  -6.683080  -0.428041   1.089490   2.810500  -0.474528   2.206280   5.611340  -1.004360   1.806820   1.081440  -0.029198   2.971540   2.186770   5.526110  -4.237730   1.883400   1.657170 -75.396600  10.483600  -0.081558  -2.130800  -2.706310 -12.395800  11.938100  -2.353060  -3.502940  41.747900  27.785000 -56.766600 -23.408600  -0.002772   0.006892  -6.704220   0.000000   0.006547 -26.920500   2.688260  -5.277240 -22.127200   0.001186   0.001694 -15.489100   0.000161   0.001545 -27.634400  -0.347882   0.664433 -29.891400   0.005386   0.001685 -19.907700   0.002896  -0.000194 -26.451700  -0.334098   0.671468 -26.453700   0.006223  -0.001513 -17.618100   0.005088  -0.002992 -25.481400  -0.322680   0.677027 -38.224900  -0.001724   0.001115 -25.457800  -0.000426   0.000552   3.708460  -1.791980   4.551190  22.556900  -9.759070  55.087000 -54.145600 -26.504700  56.106200 -44.749400  26.904000  28.324900 -57.298600  53.547600 106.136000 -12.572800  -0.001086  -0.000237 -11.286400  -0.002795  -0.007351   6.976060   1.365960  11.042100   5.817990  -0.001577   0.000514   4.072590  -0.000508  -0.002501   8.686810   0.322679   2.100110   8.694350  -0.002855  -0.002751   5.790440  -0.002741  -0.001548   6.042610  -0.411422  -3.997300   6.059710   0.013367  -0.015915   4.035760  -0.006490  -0.011742  12.777500  -3.429570 -14.484800  19.815400  -0.078642   0.027731  13.197000  -0.044574   0.032501   2.830020   9.389180   1.523310   0.392758   0.049164  13.257000  -0.973916  -3.266950   2.049970  -0.000000   0.000000   0.000000   2.643310   9.546190  -4.871450   0.271977   0.584474 -16.844600   0.615515  -3.466600   2.353170  -0.000000   0.000000   0.000000
 -0.501223  89.473300   1.226980  -2.957540  -6.678100  -0.424495   1.086850   2.808710  -0.475062   2.200980   5.607780  -1.005270   1.806830   1.104590  -0.029223   2.970570   2.233610   5.507990  -4.230030   1.889710   1.665230 -75.387900  10.493100  -0.083424  -2.133700  -2.719550 -12.375800  11.936300  -2.357320  -3.526040  41.746400  27.777500 -56.804700 -23.404000  -0.003435   0.007882  -6.701770  -0.001101   0.007413 -26.944800   2.702830  -5.300670 -22.147900   0.010227  -0.032352 -15.503600   0.022478  -0.021656 -27.640800  -0.337532   0.644966 -29.926700   0.004476  -0.000440 -19.931400   0.003196  -0.000468 -26.467700  -0.324262   0.651746 -26.469600   0.005349  -0.007532 -17.628700   0.006250  -0.004067 -25.495200  -0.313157   0.657158 -38.245500   0.002946  -0.000949 -25.471500   0.001853   0.001911   3.713840  -1.774140   4.548920  22.545900  -9.748680  55.047400 -54.152600 -26.501200  56.222700 -44.210000  26.598100  27.748000 -58.004100  53.855500 106.979000 -13.037400  -0.001356  -0.000283 -11.518700  -0.002856  -0.007431   6.700280   1.239730  10.495900   5.576890  -0.001721   0.000177   3.903810  -0.000375  -0.002557   8.940060   0.293030   1.842110   8.946050  -0.002623  -0.002522   5.958070  -0.002548  -0.001387   7.919290  -0.604499  -4.450380   7.946070   0.014740  -0.018205   5.292080  -0.006603  -0.013814  15.939200  -3.804580 -12.934300  24.553100  -0.071145   0.036483  16.352400  -0.036124   0.037058   2.831810   9.401110   1.523100   0.393928   0.018643  13.255900  -0.974429  -3.256190   2.049290  -0.000000   0.000000  -0.000000   2.643850   9.542280  -4.868910   0.277532   0.583725 -16.844400   0.611561  -3.471870   2.349980  -0.000000   0.000000  -0.000000
